<?xml version="1.0" encoding="UTF-8" standalone="no"?>
<!-- Created with Inkscape (http://www.inkscape.org/) -->

<svg
   width="42mm"
   height="40.277992mm"
   viewBox="0 0 42 40.277992"
   version="1.1"
   id="svg5"
   xml:space="preserve"
   inkscape:version="1.2.2 (b0a8486541, 2022-12-01)"
   sodipodi:docname="Relationship Anarchy black.svg"
   xmlns:inkscape="http://www.inkscape.org/namespaces/inkscape"
   xmlns:sodipodi="http://sodipodi.sourceforge.net/DTD/sodipodi-0.dtd"
   xmlns="http://www.w3.org/2000/svg"
   xmlns:svg="http://www.w3.org/2000/svg"><sodipodi:namedview
     id="namedview7"
     pagecolor="#ffffff"
     bordercolor="#000000"
     borderopacity="0.25"
     inkscape:showpageshadow="2"
     inkscape:pageopacity="0.0"
     inkscape:pagecheckerboard="0"
     inkscape:deskcolor="#d1d1d1"
     inkscape:document-units="mm"
     showgrid="false"
     inkscape:zoom="2.8079686"
     inkscape:cx="60.185859"
     inkscape:cy="109.33171"
     inkscape:window-width="1920"
     inkscape:window-height="1011"
     inkscape:window-x="0"
     inkscape:window-y="0"
     inkscape:window-maximized="1"
     inkscape:current-layer="layer1" /><defs
     id="defs2" /><g
     inkscape:label="White"
     inkscape:groupmode="layer"
     id="layer1"
     transform="matrix(0.69999987,0,0,0.69999987,262.70541,544.35325)"
     style="display:none;stroke-width:1.42857"><path
       style="display:inline;fill:#ffcc00;stroke-width:1.42857"
       d="m -351.94723,-720.16164 c -0.35004,-0.086 -0.64206,-0.24806 -0.91532,-0.508 -0.53198,-0.50604 -0.88091,-1.18151 -2.27923,-4.41216 -0.88028,-2.03379 -1.30577,-2.95453 -2.0164,-4.36341 -1.48275,-2.93966 -2.77833,-5.07814 -4.63301,-7.64721 -0.27387,-0.37936 -0.55695,-0.77746 -0.62907,-0.88467 -0.0721,-0.10721 -0.62453,-0.77938 -1.22756,-1.49371 -0.7336,-0.86899 -1.54585,-1.88122 -2.45454,-3.05888 -2.282,-2.95747 -2.83442,-3.65008 -4.08283,-5.11888 -0.73567,-0.86555 -1.08805,-1.32427 -1.57265,-2.04722 -0.81763,-1.21979 -1.51162,-2.51353 -2.07847,-3.87471 -0.47985,-1.15225 -1.06308,-3.11916 -1.15089,-3.88129 -0.0154,-0.13371 -0.0756,-0.50627 -0.13369,-0.8279 -0.15646,-0.86581 -0.17215,-1.13015 -0.17262,-2.90894 -4.2e-4,-1.75406 0.014,-1.98631 0.18969,-3.04389 0.27519,-1.65662 0.73524,-3.09725 1.4413,-4.51335 0.57796,-1.15919 1.30405,-2.25208 2.05501,-3.09314 0.47496,-0.53193 1.81569,-1.83797 2.23013,-2.17241 2.2876,-1.84607 4.84136,-2.94915 8.05188,-3.47799 0.7037,-0.11592 1.33329,-0.1406 3.18459,-0.12483 1.84769,0.0157 1.8784,0.0181 2.94899,0.23095 1.522,0.30257 2.76693,0.70047 4.0627,1.29853 1.31448,0.6067 2.77439,1.52818 3.77862,2.38504 0.481,0.41041 1.37127,1.32569 1.88,1.93283 l 0.47052,0.56152 0.23824,-0.30719 c 0.60727,-0.78301 1.59292,-1.81614 2.34444,-2.45736 1.82763,-1.55941 3.95655,-2.67422 6.14587,-3.21829 1.3523,-0.33605 2.09045,-0.42369 3.82549,-0.45416 1.94268,-0.0341 3.15549,0.0926 4.77379,0.49883 1.45938,0.36634 2.91133,0.94998 4.23383,1.70186 0.86032,0.48913 1.98348,1.27626 2.73309,1.9154 0.47912,0.40851 1.66432,1.60071 2.03799,2.05002 2.00075,2.40575 3.03162,4.89422 3.33623,8.05345 0.0573,0.59387 0.0471,2.50639 -0.0169,3.17884 -0.20548,2.15963 -0.76585,4.41251 -1.62902,6.54931 -0.42363,1.0487 -1.1012,2.45634 -1.32241,2.74729 -0.0627,0.0825 -0.65213,1.01363 -1.30984,2.06925 -0.65772,1.05561 -1.251,2.0069 -1.3184,2.11397 -0.24485,0.38893 -1.42108,1.86308 -2.18965,2.74425 -1.69568,1.94411 -4.13011,4.361 -6.04494,6.00139 -1.56426,1.34007 -6.00099,5.04499 -6.23772,5.20886 -0.0742,0.0514 -1.30029,1.0858 -2.72458,2.29871 -3.20463,2.72903 -5.37868,4.56358 -7.92165,6.68462 -3.37124,2.81187 -3.90316,3.22838 -4.45033,3.48479 -0.48836,0.22886 -0.99541,0.29172 -1.45071,0.17988 z"
       id="path1236" /></g><g
     inkscape:groupmode="layer"
     id="layer2"
     inkscape:label="Red"
     transform="matrix(0.69999987,0,0,0.69999987,-0.15678536,-0.03699138)"
     style="display:none;stroke-width:1.42857"><path
       style="display:inline;fill:#ff0000;stroke-width:1.42857"
       d="m 24.136205,54.857419 c -0.144389,-0.279219 -0.70636,-1.530749 -1.322691,-2.94568 -0.897536,-2.060506 -1.359981,-3.066585 -2.026719,-4.409258 -1.487075,-2.994662 -2.878136,-5.321245 -4.789416,-8.010408 -0.300573,-0.422905 -0.546496,-0.78972 -0.546496,-0.815142 0,-0.043 1.494344,-2.861597 5.531845,-10.434051 l 1.642935,-3.081375 h 0.154783 c 0.273354,0 1.625589,0.243043 4.606079,0.827871 2.55839,0.502004 2.981316,0.598188 3.069853,0.69816 0.02915,0.03291 0.06802,0.283482 0.1215,0.783126 1.214036,11.34242 2.086719,19.87058 2.086719,20.392126 0,0.124632 0.03042,0.09745 -2.369134,2.117211 -3.710959,3.123606 -5.950461,4.960634 -6.047464,4.960634 -0.04483,0 -0.08374,-0.02896 -0.111794,-0.08321 z M 39.757436,41.797931 C 39.654073,41.492463 36.685235,28.213252 36.674967,28.010465 l -0.0068,-0.134951 0.179934,0.0056 c 0.09896,0.0031 0.645515,0.09484 1.214557,0.203959 2.440485,0.467975 4.516042,0.8696 7.767164,1.502967 1.905055,0.371132 3.955418,0.769282 4.556362,0.884779 0.600948,0.115497 1.103639,0.2168 1.117092,0.225116 0.01346,0.0083 0.02447,0.05348 0.02447,0.100371 0,0.367009 -3.870324,4.4378 -6.163047,6.482268 -0.672544,0.599721 -1.684602,1.459423 -3.388466,2.878367 -2.082017,1.733859 -2.009635,1.676511 -2.116069,1.676511 -0.0495,0 -0.09572,-0.01687 -0.102692,-0.03749 z M 11.699961,34.014849 C 11.456392,33.728954 11.212623,33.420129 10.487516,32.478833 9.259558,30.884765 8.3198421,29.715561 7.4683494,28.72236 6.6247794,27.738401 6.2503883,27.249568 5.7182039,26.437235 4.8234844,25.071524 4.0402253,23.443667 3.5619735,21.955914 3.4368829,21.566781 3.4295314,21.403672 3.5363971,21.388471 c 0.1690424,-0.02404 14.0945539,2.668271 14.2604989,2.757081 0.115256,0.06168 0.05985,0.270525 -0.197237,0.743471 -0.583982,1.074305 -5.365756,9.129883 -5.515526,9.291689 -0.104698,0.11311 -0.170819,0.08456 -0.384172,-0.165863 z m 43.036577,-9.18582 c -0.09072,-0.01394 -1.082605,-0.147143 -2.204195,-0.296009 -1.121591,-0.148865 -2.390128,-0.31815 -2.818971,-0.376187 -0.428843,-0.05804 -1.528692,-0.206403 -2.444107,-0.329702 -2.277272,-0.30673 -2.635291,-0.3553 -5.413024,-0.734352 -3.14619,-0.429332 -3.62133,-0.494464 -4.378401,-0.600186 -0.346374,-0.04837 -0.926662,-0.12901 -1.289529,-0.179198 C 35.34393,22.196606 35.36558,22.201668 35.331938,22.113187 35.276842,21.968267 34.3112,17.749906 33.25289,13.030933 32.420409,9.3189315 32.324525,8.8724763 32.322054,8.6967403 c -0.0022,-0.1562244 0.0092,-0.1828473 0.198272,-0.464831 0.592599,-0.8836123 1.985215,-2.313602 2.978236,-3.0581594 1.549619,-1.1618888 3.137917,-1.8584547 5.158117,-2.2621482 0.75926,-0.1517211 1.094223,-0.1828104 2.174206,-0.2017936 1.085763,-0.019085 2.262959,0.020634 2.83533,0.095666 0.679129,0.089026 1.682242,0.3237237 2.457738,0.5750346 1.779448,0.5766566 3.393315,1.4736041 4.922684,2.7359064 0.500266,0.4129042 1.580375,1.4854789 1.934843,1.9213413 1.522667,1.8723182 2.320667,3.6942136 2.64044,6.0283516 0.06128,0.447303 0.06771,0.612521 0.06763,1.738813 0,1.328438 -0.01569,1.554307 -0.182294,2.639037 -0.251138,1.635084 -0.741099,3.364788 -1.40416,4.957106 -0.27798,0.667563 -0.575418,1.280401 -0.668681,1.377746 -0.07372,0.07695 -0.09536,0.08255 -0.306137,0.07918 -0.124742,-0.002 -0.301027,-0.01503 -0.391744,-0.02897 z M 29.215857,21.410572 c -0.206175,-0.03052 -1.029375,-0.144123 -1.829332,-0.25245 -1.639017,-0.221951 -2.28376,-0.315188 -2.316655,-0.335014 -0.062,-0.03737 6.81e-4,-0.21378 0.236846,-0.666992 0.890403,-1.708455 2.852361,-5.382914 3.195979,-5.985598 0.314492,-0.551602 0.363347,-0.614776 0.475418,-0.614776 0.06373,0 0.0974,0.0192 0.11831,0.06748 0.03433,0.07925 0.144604,1.063616 0.493022,4.400893 0.140342,1.344259 0.277792,2.648059 0.305443,2.897334 0.02765,0.249274 0.0418,0.475316 0.03144,0.502316 -0.02459,0.06409 -0.211885,0.06061 -0.710468,-0.01319 z M 19.709329,20.119629 C 19.602117,20.10454 18.697947,19.98385 17.700061,19.85143 14.984625,19.491087 10.059477,18.829098 7.4588013,18.474903 6.9804764,18.409759 5.8333952,18.254557 4.9097321,18.13001 2.7700427,17.841494 2.8528272,17.854374 2.80027,17.801817 2.7623384,17.763885 2.7560963,17.608255 2.7590273,16.773524 2.7629547,15.655568 2.8008514,14.934521 2.8887526,14.305468 3.3038381,11.33496 4.5188247,8.8927831 6.633747,6.7778605 8.9550981,4.4565083 11.943489,3.066696 15.285943,2.7539801 c 0.275299,-0.025757 0.894787,-0.039235 1.799343,-0.039146 1.651825,1.7e-4 2.136065,0.044621 3.294468,0.3024834 2.708201,0.6028502 5.468,2.1436738 7.179104,4.0081675 0.344909,0.3758269 0.37557,0.4336648 0.303179,0.5719045 -0.04344,0.082948 -4.411273,7.4650235 -5.424051,9.1671815 -0.997545,1.676558 -1.606674,2.672128 -1.871541,3.058883 l -0.215648,0.314885 -0.22327,0.0044 c -0.122798,0.0024 -0.310988,-0.008 -0.418198,-0.02307 z"
       id="path1893" /></g><g
     inkscape:groupmode="layer"
     id="layer3"
     inkscape:label="Black"
     style="display:inline;stroke-width:1.42857"
     transform="matrix(0.69999987,0,0,0.69999987,-0.15678536,-0.03699138)"><path
       style="display:inline;fill:#000000;stroke-width:1.42857"
       d="m 23.860961,56.034542 c -0.339572,-0.135008 -0.765022,-0.958183 -2.106068,-4.074891 -1.5684,-3.645097 -2.996762,-6.431746 -4.665282,-9.101677 -0.688679,-1.102011 -1.299573,-2.002258 -2.290092,-3.374809 -0.25633,-0.355194 -0.481873,-0.67536 -0.501206,-0.711484 -0.04193,-0.07836 -0.04856,-0.06459 0.978406,-2.031474 2.476536,-4.743143 6.733799,-12.776234 6.817121,-12.863324 0.02967,-0.03101 0.233363,0.0015 1.302291,0.208136 0.379361,0.07332 1.357755,0.262127 2.174206,0.419574 2.478668,0.47799 5.745242,1.128304 5.782156,1.151118 0.04754,0.02939 0.298352,2.335023 1.624972,14.93809 0.231779,2.201946 0.50934,4.825735 0.616802,5.830642 0.158798,1.484998 0.188146,1.833767 0.156741,1.862692 -0.02126,0.01957 -0.591942,0.500068 -1.268195,1.067769 -0.676253,0.567701 -1.647898,1.383455 -2.159211,1.812787 -3.360936,2.822051 -5.191678,4.320391 -5.690151,4.657012 -0.322891,0.218047 -0.577729,0.287271 -0.77249,0.209839 z m 1.244546,-1.992445 c 1.216877,-0.987441 5.285456,-4.385083 6.997852,-5.843856 l 0.460238,-0.392074 -0.01949,-0.269901 c -0.09575,-1.325921 -0.719131,-7.379325 -2.056781,-19.972708 -0.08044,-0.757281 -0.09994,-0.876156 -0.150905,-0.919769 -0.07976,-0.06825 -0.570251,-0.180326 -2.261996,-0.516857 -2.686133,-0.53434 -4.836535,-0.933827 -5.188106,-0.963811 l -0.209924,-0.0179 -1.647999,3.098481 c -0.906399,1.704164 -2.509718,4.716854 -3.562932,6.694869 -1.053214,1.978012 -1.917527,3.606234 -1.920698,3.618266 -0.0032,0.01204 0.198216,0.309961 0.447525,0.66206 1.955112,2.761184 3.325292,5.034897 4.748119,7.879149 0.736809,1.472891 1.168663,2.407677 2.079727,4.50174 1.058789,2.433609 1.394324,3.160244 1.442603,3.124104 0.01819,-0.01362 0.397432,-0.320421 0.842769,-0.681789 z M 39.131379,43.538989 C 38.230994,39.769237 35.30095,26.668872 35.322995,26.511519 l 0.0088,-0.06265 0.284896,0.0529 c 0.771339,0.143229 3.073248,0.577786 3.396638,0.641221 0.201844,0.03959 0.866305,0.167965 1.476583,0.285273 0.610276,0.117306 1.487456,0.286347 1.949287,0.375645 2.206817,0.426706 2.919149,0.56474 3.403758,0.659574 0.288644,0.05649 1.327764,0.258895 2.309157,0.4498 2.517301,0.489677 4.306325,0.844539 5.165613,1.024622 0.04536,0.0095 0.08235,0.02572 0.0822,0.03603 -8.5e-4,0.05693 -1.08793,1.439856 -1.771022,2.252928 -1.641414,1.953754 -4.126756,4.453929 -6.175809,6.212673 -1.538771,1.32076 -6.120381,5.145642 -6.25535,5.222174 -0.01992,0.0113 -0.04575,-0.03648 -0.06635,-0.122713 z m 0.990245,-2.096504 c 0.435669,-0.352545 2.709945,-2.246085 3.502121,-2.915829 1.612697,-1.363462 2.388313,-2.066244 3.609889,-3.270907 1.598624,-1.576488 3.35843,-3.463112 3.981938,-4.268887 0.191237,-0.247143 0.233422,-0.319437 0.186403,-0.319437 -0.02134,0 -2.671584,-0.512717 -5.439084,-1.05225 -3.871083,-0.754676 -5.104965,-0.993874 -6.792519,-1.316779 -2.747777,-0.525773 -2.452088,-0.47875 -2.430703,-0.386556 0.0091,0.03936 0.280323,1.258827 0.60265,2.709923 0.507089,2.28286 1.235532,5.530626 1.913776,8.532563 0.406996,1.801386 0.571031,2.489091 0.593714,2.489091 0.01293,0 0.135245,-0.09042 0.271815,-0.200932 z M 11.709905,35.653104 C 11.521526,35.409818 11.051459,34.799166 10.665311,34.2961 8.4137219,31.362769 7.8862078,30.701552 6.3951626,28.943642 6.1156356,28.614085 5.7452331,28.155252 5.5720473,27.924014 4.5856175,26.606933 3.6373334,24.912764 3.0129472,23.352038 2.5655654,22.233747 1.9197826,19.961334 2.0493693,19.961334 c 0.095439,0 2.3854077,0.431291 5.8124335,1.09471 0.5443015,0.105368 1.3135207,0.253333 1.7093764,0.328811 0.3958549,0.07548 0.7804648,0.150129 0.8546878,0.165892 0.07422,0.01576 0.560045,0.110612 1.079605,0.210775 1.01446,0.195571 1.252232,0.241851 3.388763,0.659591 1.924255,0.376236 4.232323,0.835154 4.475865,0.889948 0.111335,0.02505 0.202427,0.05737 0.202427,0.07183 0,0.06473 -3.134798,5.407199 -6.050823,10.312088 -1.145815,1.927319 -1.433132,2.400465 -1.457668,2.400465 -0.0064,0 -0.165751,-0.199052 -0.354131,-0.442339 z m 0.347644,-1.739364 c 0.772097,-1.26696 1.891173,-3.140133 3.397176,-5.686389 1.883239,-3.184059 2.300375,-3.923809 2.282664,-4.048072 -0.0085,-0.05991 -0.08976,-0.08064 -1.148772,-0.293308 C 15.961845,23.760105 14.922725,23.554917 14.27946,23.429997 13.636194,23.305077 12.374405,23.059994 11.475483,22.885368 9.9519519,22.589405 9.4090437,22.484453 7.3819784,22.094034 5.9587927,21.819925 5.3506678,21.704609 4.5180239,21.550954 c -0.4535832,-0.0837 -0.8635868,-0.159938 -0.911115,-0.169411 -0.085697,-0.01708 -0.086241,-0.01627 -0.065116,0.09633 0.050129,0.267202 0.4575914,1.376087 0.7426498,2.021071 0.8008737,1.81208 1.8479595,3.45066 3.1722813,4.964288 0.6230193,0.712078 1.7032218,2.045613 2.684264,3.313791 1.102846,1.425628 1.32483,1.709004 1.555983,1.986306 0.133838,0.160559 0.250188,0.292135 0.258556,0.292394 0.0084,3.4e-4 0.05428,-0.06363 0.102022,-0.14198 z m 43.396875,-8.059957 c -0.305992,-0.04329 -0.960123,-0.131908 -2.414118,-0.327072 -0.552548,-0.07417 -2.010016,-0.270578 -3.238817,-0.43647 -1.228802,-0.165892 -2.74025,-0.369645 -3.358774,-0.452785 -1.839714,-0.247287 -3.524654,-0.4745 -3.988543,-0.537852 -0.239162,-0.03266 -1.082605,-0.147773 -1.874315,-0.255801 -2.094375,-0.285777 -2.870228,-0.392101 -3.493725,-0.478787 -0.305138,-0.04242 -0.743728,-0.103126 -0.974644,-0.134895 -1.336792,-0.183916 -1.562747,-0.219409 -1.595012,-0.250542 -0.05525,-0.05331 -0.459927,-1.811178 -2.632589,-11.435514 l -0.739128,-3.2741464 0.27636,-0.3995128 c 0.595899,-0.861443 1.084648,-1.4478228 1.80883,-2.1701454 0.872129,-0.8698936 1.656439,-1.4945994 2.656622,-2.1160086 1.608219,-0.9991786 3.508524,-1.6769763 5.323055,-1.8986177 1.014938,-0.1239736 3.252313,-0.1421263 4.168478,-0.033821 3.216248,0.3802099 6.1123,1.6690212 8.591659,3.8234885 0.525639,0.4567591 1.380306,1.3359161 1.804246,1.8559427 1.795877,2.2029211 2.696364,4.4802287 2.906434,7.3502897 0.04529,0.618773 0.01965,2.149914 -0.04648,2.775713 -0.208595,1.973946 -0.694867,3.908919 -1.477146,5.877855 -0.345786,0.870317 -0.91775,2.10376 -1.135464,2.448646 -0.0838,0.132737 -0.105079,0.135366 -0.566929,0.07004 z m -0.113355,-1.251644 c 0.211057,-0.229557 0.94315,-1.987495 1.30821,-3.141353 0.910995,-2.879402 1.179517,-5.617296 0.782219,-7.975656 C 57.077957,11.386521 56.200765,9.5489752 54.73048,7.8270388 54.353479,7.3855089 53.504087,6.5503845 53.025311,6.1505105 51.023897,4.4789262 48.834069,3.4219445 46.322759,2.915334 45.427173,2.7346658 44.415201,2.6708279 42.874019,2.6977781 41.769516,2.717092 41.522754,2.738129 40.834763,2.8716304 38.464006,3.3316623 36.625333,4.1975996 34.944546,5.645674 33.983216,6.4738991 32.739259,7.8524843 32.449795,8.4104153 l -0.07933,0.1529036 0.171247,0.7883001 c 0.50823,2.33953 2.687237,11.966141 2.837599,12.536209 0.02056,0.07795 0.04984,0.116807 0.09598,0.127399 0.09105,0.0209 7.543292,1.044125 10.487597,1.439992 0.43709,0.05877 1.88781,0.254356 3.223823,0.434641 1.336012,0.180285 3.144351,0.422033 4.018532,0.537218 0.874181,0.115184 1.623158,0.215038 1.664393,0.221897 0.04124,0.0069 0.150218,0.01431 0.242182,0.01656 0.138141,0.0034 0.177994,-0.0076 0.229248,-0.06339 z M 30.953371,22.545866 c -0.604458,-0.06397 -7.540672,-1.013532 -7.562437,-1.035297 -0.02533,-0.02533 5.635943,-10.682987 6.228839,-11.7261301 l 0.08273,-0.1455564 0.01806,0.115568 c 0.03027,0.1937306 0.506393,4.6819635 0.976192,9.2022495 0.32859,3.161612 0.367486,3.552108 0.356297,3.577039 -0.0053,0.01191 -0.0502,0.01736 -0.09968,0.01213 z m -1.124588,-1.322823 c 0,-0.03179 -0.0134,-0.156623 -0.02979,-0.277398 -0.01638,-0.120776 -0.15131,-1.386915 -0.299841,-2.813644 -0.344152,-3.305773 -0.476096,-4.498731 -0.505566,-4.57103 -0.02137,-0.05242 -0.03072,-0.04823 -0.102604,0.04602 -0.163402,0.214231 -0.733761,1.258395 -2.307908,4.22512 -1.129792,2.129268 -1.472345,2.789211 -1.456175,2.805381 0.01408,0.01408 0.71564,0.114428 3.022491,0.432321 0.816453,0.11251 1.528318,0.206021 1.581923,0.207802 0.07737,0.0026 0.09746,-0.0087 0.09746,-0.05457 z M 20.24728,21.111982 C 20.082341,21.089254 19.53579,21.016739 19.032724,20.950837 17.256572,20.718162 13.141175,20.167452 9.7361183,19.706793 6.5758971,19.279257 3.1047052,18.821603 2.3601087,18.734315 1.9829098,18.690094 1.858041,18.664764 1.8303028,18.626835 1.7628742,18.534614 1.7440364,18.062565 1.7447334,16.482603 1.7455835,14.768 1.7577822,14.594583 1.9571607,13.483698 2.4005472,11.013254 3.4745594,8.7046401 5.0123253,6.9165409 5.4011959,6.464368 6.4509025,5.4242851 6.8865005,5.0595493 9.0748181,3.2272245 11.491609,2.1767383 14.654323,1.6831757 c 0.156692,-0.024453 0.718701,-0.059878 1.248907,-0.078723 1.130263,-0.040172 2.95852,0.0022 3.41439,0.079132 1.879851,0.3172452 3.352436,0.7801036 4.813243,1.5128848 1.133787,0.5687397 2.13924,1.2179568 3.0139,1.9460642 0.396355,0.3299446 1.236535,1.1851335 1.654048,1.6835951 L 29.163036,7.26097 29.08356,7.3987192 c -0.04371,0.075761 -1.894255,3.2032448 -4.112317,6.9499618 l -4.032841,6.812214 -0.195615,-0.0038 c -0.107589,-0.0021 -0.330567,-0.02239 -0.495507,-0.04512 z m 0.328107,-1.626971 c 0.46724,-0.708136 1.085083,-1.740592 5.05117,-8.44085 1.189634,-2.0097506 2.16297,-3.6633972 2.16297,-3.6747697 0,-0.040641 -0.650001,-0.7279237 -0.92966,-0.9829836 C 24.921601,4.6186416 22.243409,3.3157657 19.6318,2.8701274 18.23796,2.632286 16.157882,2.6131727 14.602121,2.8239118 13.308561,2.9991335 11.852558,3.4276809 10.638666,3.9904819 8.6884824,4.8946543 6.9975724,6.2255626 5.6368186,7.9274175 3.9938073,9.982283 3.0576616,12.438513 2.8676595,15.193074 c -0.048106,0.697427 -0.053436,2.386704 -0.00765,2.432464 0.020207,0.0202 1.7164236,0.262885 3.9879541,0.570573 6.7676294,0.916701 12.8296504,1.727644 13.2494044,1.772432 0.04948,0.0053 0.107758,0.004 0.129502,-0.0028 0.02174,-0.0068 0.178592,-0.22315 0.348549,-0.480732 z"
       id="path492" /></g></svg>
